<svg width="580" height="400" xmlns="http://www.w3.org/2000/svg">
 <!-- Created with Method Draw - http://github.com/duopixel/Method-Draw/ -->
 <g>
  <title>Layer 1</title>
  <path id="svg_4" d="m0.5,400.453125c-1,1 127,39 208,0" opacity="0.5" fill-opacity="null" stroke-opacity="null" stroke-width="1.5" stroke="#000" fill="none"/>
  <path id="svg_7" d="m-27.5,410.45313c-5,-4 281,-75 284,-193c3,-118 75,-170 155,-190c80,-20 127,-16 160,-24c33,-8 31,-25.00001 30.5,-24.45313c0.5,-0.54688 -0.5,406.45313 -1,406c0.5,0.45313 -6.5,141.45313 -7,141c0.5,0.45313 -552.5,-4.54687 -553,-5c0.5,0.45313 -103.5,-101.45313 -72,-96c31.5,5.45313 -18.5,-7.45313 -48,-9c-29.5,-1.54687 56.5,-1.54687 51.5,-5.54687z" stroke-opacity="null" stroke-width="1.5" stroke="#000" fill="#589167"/>
 </g>
</svg>